<svg version="1.1" xmlns="http://www.w3.org/2000/svg" xmlns:xlink="http://www.w3.org/1999/xlink" width="2204" height="964"><defs/><g><g transform="translate(10,10) scale(1,1)"><path fill="none" stroke="#a00000" d="M 0 0 L 2184 0 L 2184 944 L 0 944 L 0 0" stroke-miterlimit="10"/></g><g transform="translate(10,10) scale(1,1)"><path fill="#fefed2" stroke="none" d="M 0 0 L 0 22 L 135.7041015625 22 L 146.7041015625 11 L 146.7041015625 0 L 0 0"/></g><g transform="translate(10,10) scale(1,1)"><path fill="none" stroke="#a00000" d="M 0 0 L 0 22 L 135.7041015625 22 L 146.7041015625 11 L 146.7041015625 0 L 0 0 L 0 0" stroke-miterlimit="10"/></g><g transform="translate(10,10) scale(1,1)"><g><path fill="none" stroke="none"/><text fill="#000000" stroke="none" font-family="Arial" font-size="13px" font-style="normal" font-weight="normal" text-decoration="none" x="24.72998046875" y="16">SubmitWordCount</text></g></g><g transform="translate(10,10) scale(1,1)"><g><path fill="none" stroke="none"/><text fill="#000000" stroke="none" font-family="Arial" font-size="13px" font-style="normal" font-weight="bold" text-decoration="none" x="4.279541015625" y="16">sd</text></g></g><g transform="translate(10,10) scale(1,1)"><rect fill="#C0C0C0" stroke="none" x="159" y="47" width="91.9345703125" height="39" opacity="0.2"/></g><g transform="translate(10,10) scale(1,1)"><rect fill="#fefed2" stroke="none" x="152" y="40" width="91.9345703125" height="39"/></g><g transform="translate(10,10) scale(1,1)"><path fill="none" stroke="#a00000" d="M 152 40 L 243.9345703125 40 L 243.9345703125 79 L 152 79 L 152 40 Z Z" stroke-miterlimit="10"/></g><g transform="translate(10,10) scale(1,1)"><g><path fill="none" stroke="none"/><text fill="#000000" stroke="none" font-family="Arial" font-size="13px" font-style="normal" font-weight="bold" text-decoration="none" x="161.5" y="58">CliFrontend</text></g></g><g transform="translate(10,10) scale(1,1)"><path fill="none" stroke="#a00000" d="M 198.5 80 L 198.5 856" stroke-miterlimit="10" stroke-dasharray="3"/></g><g transform="translate(10,10) scale(1,1)"><rect fill="#fefed2" stroke="none" x="82" y="92.5" width="14" height="14"/></g><g transform="translate(10,10) scale(1,1)"><path fill="none" stroke="#a00000" d="M 82 92.5 L 96 92.5 L 96 106.5 L 82 106.5 L 82 92.5 Z Z" stroke-miterlimit="10"/></g><g transform="translate(10,10) scale(1,1)"><rect fill="#C0C0C0" stroke="none" x="311" y="47" width="157.6708984375" height="39" opacity="0.2"/></g><g transform="translate(10,10) scale(1,1)"><rect fill="#fefed2" stroke="none" x="304" y="40" width="157.6708984375" height="39"/></g><g transform="translate(10,10) scale(1,1)"><path fill="none" stroke="#a00000" d="M 304 40 L 461.6708984375 40 L 461.6708984375 79 L 304 79 L 304 40 Z Z" stroke-miterlimit="10"/></g><g transform="translate(10,10) scale(1,1)"><g><path fill="none" stroke="none"/><text fill="#000000" stroke="none" font-family="Arial" font-size="13px" font-style="normal" font-weight="bold" text-decoration="none" x="313.5" y="58">CustomCommandLine</text></g></g><g transform="translate(10,10) scale(1,1)"><path fill="none" stroke="#a00000" d="M 383.5 80 L 383.5 856" stroke-miterlimit="10" stroke-dasharray="3"/></g><g transform="translate(10,10) scale(1,1)"><rect fill="#C0C0C0" stroke="none" x="495" y="47" width="133.16259765625" height="39" opacity="0.2"/></g><g transform="translate(10,10) scale(1,1)"><rect fill="#fefed2" stroke="none" x="488" y="40" width="133.16259765625" height="39"/></g><g transform="translate(10,10) scale(1,1)"><path fill="none" stroke="#a00000" d="M 488 40 L 621.16259765625 40 L 621.16259765625 79 L 488 79 L 488 40 Z Z" stroke-miterlimit="10"/></g><g transform="translate(10,10) scale(1,1)"><g><path fill="none" stroke="none"/><text fill="#000000" stroke="none" font-family="Arial" font-size="13px" font-style="normal" font-weight="bold" text-decoration="none" x="497.5" y="58">PackagedProgram</text></g></g><g transform="translate(10,10) scale(1,1)"><path fill="none" stroke="#a00000" d="M 555.5 80 L 555.5 853" stroke-miterlimit="10" stroke-dasharray="3"/></g><g transform="translate(10,10) scale(1,1)"><rect fill="#C0C0C0" stroke="none" x="799" y="47" width="83.28271484375" height="39" opacity="0.2"/></g><g transform="translate(10,10) scale(1,1)"><rect fill="#fefed2" stroke="none" x="792" y="40" width="83.28271484375" height="39"/></g><g transform="translate(10,10) scale(1,1)"><path fill="none" stroke="#a00000" d="M 792 40 L 875.28271484375 40 L 875.28271484375 79 L 792 79 L 792 40 Z Z" stroke-miterlimit="10"/></g><g transform="translate(10,10) scale(1,1)"><g><path fill="none" stroke="none"/><text fill="#000000" stroke="none" font-family="Arial" font-size="13px" font-style="normal" font-weight="bold" text-decoration="none" x="801.5" y="58">ClientUtils</text></g></g><g transform="translate(10,10) scale(1,1)"><path fill="none" stroke="#a00000" d="M 834.5 80 L 834.5 848" stroke-miterlimit="10" stroke-dasharray="3"/></g><g transform="translate(10,10) scale(1,1)"><rect fill="#C0C0C0" stroke="none" x="895" y="47" width="89.51611328125" height="39" opacity="0.2"/></g><g transform="translate(10,10) scale(1,1)"><rect fill="#fefed2" stroke="none" x="888" y="40" width="89.51611328125" height="39"/></g><g transform="translate(10,10) scale(1,1)"><path fill="none" stroke="#a00000" d="M 888 40 L 977.51611328125 40 L 977.51611328125 79 L 888 79 L 888 40 Z Z" stroke-miterlimit="10"/></g><g transform="translate(10,10) scale(1,1)"><g><path fill="none" stroke="none"/><text fill="#000000" stroke="none" font-family="Arial" font-size="13px" font-style="normal" font-weight="bold" text-decoration="none" x="897.5" y="58">WordCount</text></g></g><g transform="translate(10,10) scale(1,1)"><path fill="none" stroke="#a00000" d="M 933.5 80 L 933.5 848" stroke-miterlimit="10" stroke-dasharray="3"/></g><g transform="translate(10,10) scale(1,1)"><rect fill="#C0C0C0" stroke="none" x="991" y="47" width="204.65625" height="39" opacity="0.2"/></g><g transform="translate(10,10) scale(1,1)"><rect fill="#fefed2" stroke="none" x="984" y="40" width="204.65625" height="39"/></g><g transform="translate(10,10) scale(1,1)"><path fill="none" stroke="#a00000" d="M 984 40 L 1188.65625 40 L 1188.65625 79 L 984 79 L 984 40 Z Z" stroke-miterlimit="10"/></g><g transform="translate(10,10) scale(1,1)"><g><path fill="none" stroke="none"/><text fill="#000000" stroke="none" font-family="Arial" font-size="13px" font-style="normal" font-weight="bold" text-decoration="none" x="993.5" y="58">StreamExecutionEnvironment</text></g></g><g transform="translate(10,10) scale(1,1)"><path fill="none" stroke="#a00000" d="M 1087.5 80 L 1087.5 848" stroke-miterlimit="10" stroke-dasharray="3"/></g><g transform="translate(10,10) scale(1,1)"><rect fill="#C0C0C0" stroke="none" x="1351" y="47" width="152.64990234375" height="39" opacity="0.2"/></g><g transform="translate(10,10) scale(1,1)"><rect fill="#fefed2" stroke="none" x="1344" y="40" width="152.64990234375" height="39"/></g><g transform="translate(10,10) scale(1,1)"><path fill="none" stroke="#a00000" d="M 1344 40 L 1496.64990234375 40 L 1496.64990234375 79 L 1344 79 L 1344 40 Z Z" stroke-miterlimit="10"/></g><g transform="translate(10,10) scale(1,1)"><g><path fill="none" stroke="none"/><text fill="#000000" stroke="none" font-family="Arial" font-size="13px" font-style="normal" font-weight="bold" text-decoration="none" x="1353.5" y="58">PipelineExecutorUtils</text></g></g><g transform="translate(10,10) scale(1,1)"><path fill="none" stroke="#a00000" d="M 1421.5 80 L 1421.5 848" stroke-miterlimit="10" stroke-dasharray="3"/></g><g transform="translate(10,10) scale(1,1)"><rect fill="#C0C0C0" stroke="none" x="1207" y="47" width="124.47900390625" height="39" opacity="0.2"/></g><g transform="translate(10,10) scale(1,1)"><rect fill="#fefed2" stroke="none" x="1200" y="40" width="124.47900390625" height="39"/></g><g transform="translate(10,10) scale(1,1)"><path fill="none" stroke="#a00000" d="M 1200 40 L 1324.47900390625 40 L 1324.47900390625 79 L 1200 79 L 1200 40 Z Z" stroke-miterlimit="10"/></g><g transform="translate(10,10) scale(1,1)"><g><path fill="none" stroke="none"/><text fill="#000000" stroke="none" font-family="Arial" font-size="13px" font-style="normal" font-weight="bold" text-decoration="none" x="1209.5" y="58">PipelineExecutor</text></g></g><g transform="translate(10,10) scale(1,1)"><path fill="none" stroke="#a00000" d="M 1263.5 80 L 1263.5 848" stroke-miterlimit="10" stroke-dasharray="3"/></g><g transform="translate(10,10) scale(1,1)"><rect fill="#C0C0C0" stroke="none" x="1511" y="47" width="144.70263671875" height="39" opacity="0.2"/></g><g transform="translate(10,10) scale(1,1)"><rect fill="#fefed2" stroke="none" x="1504" y="40" width="144.70263671875" height="39"/></g><g transform="translate(10,10) scale(1,1)"><path fill="none" stroke="#a00000" d="M 1504 40 L 1648.70263671875 40 L 1648.70263671875 79 L 1504 79 L 1504 40 Z Z" stroke-miterlimit="10"/></g><g transform="translate(10,10) scale(1,1)"><g><path fill="none" stroke="none"/><text fill="#000000" stroke="none" font-family="Arial" font-size="13px" font-style="normal" font-weight="bold" text-decoration="none" x="1513.5" y="58">clusterClientFactory</text></g></g><g transform="translate(10,10) scale(1,1)"><path fill="none" stroke="#a00000" d="M 1577.5 80 L 1577.5 848" stroke-miterlimit="10" stroke-dasharray="3"/></g><g transform="translate(10,10) scale(1,1)"><rect fill="#C0C0C0" stroke="none" x="1695" y="47" width="126.64990234375" height="39" opacity="0.2"/></g><g transform="translate(10,10) scale(1,1)"><rect fill="#fefed2" stroke="none" x="1688" y="40" width="126.64990234375" height="39"/></g><g transform="translate(10,10) scale(1,1)"><path fill="none" stroke="#a00000" d="M 1688 40 L 1814.64990234375 40 L 1814.64990234375 79 L 1688 79 L 1688 40 Z Z" stroke-miterlimit="10"/></g><g transform="translate(10,10) scale(1,1)"><g><path fill="none" stroke="none"/><text fill="#000000" stroke="none" font-family="Arial" font-size="13px" font-style="normal" font-weight="bold" text-decoration="none" x="1697.5" y="58">clusterDescriptor</text></g></g><g transform="translate(10,10) scale(1,1)"><path fill="none" stroke="#a00000" d="M 1752.5 80 L 1752.5 848" stroke-miterlimit="10" stroke-dasharray="3"/></g><g transform="translate(10,10) scale(1,1)"><rect fill="#C0C0C0" stroke="none" x="1879" y="47" width="150.4853515625" height="39" opacity="0.2"/></g><g transform="translate(10,10) scale(1,1)"><rect fill="#fefed2" stroke="none" x="1872" y="40" width="150.4853515625" height="39"/></g><g transform="translate(10,10) scale(1,1)"><path fill="none" stroke="#a00000" d="M 1872 40 L 2022.4853515625 40 L 2022.4853515625 79 L 1872 79 L 1872 40 Z Z" stroke-miterlimit="10"/></g><g transform="translate(10,10) scale(1,1)"><g><path fill="none" stroke="none"/><text fill="#000000" stroke="none" font-family="Arial" font-size="13px" font-style="normal" font-weight="bold" text-decoration="none" x="1881.5" y="58">clusterClientProvider</text></g></g><g transform="translate(10,10) scale(1,1)"><path fill="none" stroke="#a00000" d="M 1948.5 80 L 1948.5 848" stroke-miterlimit="10" stroke-dasharray="3"/></g><g transform="translate(10,10) scale(1,1)"><rect fill="#C0C0C0" stroke="none" x="2047" y="47" width="97.74267578125" height="39" opacity="0.2"/></g><g transform="translate(10,10) scale(1,1)"><rect fill="#fefed2" stroke="none" x="2040" y="40" width="97.74267578125" height="39"/></g><g transform="translate(10,10) scale(1,1)"><path fill="none" stroke="#a00000" d="M 2040 40 L 2137.74267578125 40 L 2137.74267578125 79 L 2040 79 L 2040 40 Z Z" stroke-miterlimit="10"/></g><g transform="translate(10,10) scale(1,1)"><g><path fill="none" stroke="none"/><text fill="#000000" stroke="none" font-family="Arial" font-size="13px" font-style="normal" font-weight="bold" text-decoration="none" x="2049.5" y="58">clusterClient</text></g></g><g transform="translate(10,10) scale(1,1)"><path fill="none" stroke="#a00000" d="M 2089.5 80 L 2089.5 848" stroke-miterlimit="10" stroke-dasharray="3"/></g><g transform="translate(10,10) scale(1,1)"><path fill="none" stroke="#a00000" d="M 96 100 L 191 100" stroke-miterlimit="10"/></g><g transform="translate(10,10) scale(1,1)"><path fill="#a00000" stroke="none" d="M 180.83732514237585 104.20951775601598 L 191 100 L 180.83732514237585 95.79048224398402"/></g><g transform="translate(10,10) scale(1,1)"><path fill="none" stroke="#a00000" d="M 180.83732514237585 104.20951775601598 L 191 100 L 180.83732514237585 95.79048224398402 L 180.83732514237585 104.20951775601598" stroke-miterlimit="10"/></g><g transform="translate(10,10) scale(1,1)"><g><path fill="none" stroke="none"/><text fill="#000000" stroke="none" font-family="Arial" font-size="13px" font-style="normal" font-weight="normal" text-decoration="none" x="97.5" y="95">1 : ./bin/flink run</text></g></g><g transform="translate(10,10) scale(1,1)"><rect fill="#fefed2" stroke="none" x="191" y="100" width="13" height="740"/></g><g transform="translate(10,10) scale(1,1)"><path fill="none" stroke="#a00000" d="M 191 100 L 204 100 L 204 840 L 191 840 L 191 100 Z Z" stroke-miterlimit="10"/></g><g transform="translate(10,10) scale(1,1)"><path fill="none" stroke="#a00000" d="M 204 136 L 234 136 L 234 156 L 211 156" stroke-miterlimit="10"/></g><g transform="translate(10,10) scale(1,1)"><path fill="#a00000" stroke="none" d="M 221.16267485762415 151.790482243984 L 211 156 L 221.16267485762415 160.209517756016"/></g><g transform="translate(10,10) scale(1,1)"><path fill="none" stroke="#a00000" d="M 221.16267485762415 151.790482243984 L 211 156 L 221.16267485762415 160.209517756016 L 221.16267485762415 151.790482243984" stroke-miterlimit="10"/></g><g transform="translate(10,10) scale(1,1)"><g><path fill="none" stroke="none"/><text fill="#000000" stroke="none" font-family="Arial" font-size="13px" font-style="normal" font-weight="normal" text-decoration="none" x="251.72998046875" y="150">2 : run()</text></g></g><g transform="translate(10,10) scale(1,1)"><rect fill="#fefed2" stroke="none" x="198" y="156" width="13" height="116"/></g><g transform="translate(10,10) scale(1,1)"><path fill="none" stroke="#a00000" d="M 198 156 L 211 156 L 211 272 L 198 272 L 198 156 Z Z" stroke-miterlimit="10"/></g><g transform="translate(10,10) scale(1,1)"><path fill="none" stroke="#a00000" d="M 211 182 L 376 182" stroke-miterlimit="10"/></g><g transform="translate(10,10) scale(1,1)"><path fill="#a00000" stroke="none" d="M 365.83732514237585 186.209517756016 L 376 182 L 365.83732514237585 177.790482243984"/></g><g transform="translate(10,10) scale(1,1)"><path fill="none" stroke="#a00000" d="M 365.83732514237585 186.209517756016 L 376 182 L 365.83732514237585 177.790482243984 L 365.83732514237585 186.209517756016" stroke-miterlimit="10"/></g><g transform="translate(10,10) scale(1,1)"><g><path fill="none" stroke="none"/><text fill="#000000" stroke="none" font-family="Arial" font-size="13px" font-style="normal" font-weight="normal" text-decoration="none" x="238.5" y="177.5">3 : 选择命令行接口</text></g></g><g transform="translate(10,10) scale(1,1)"><rect fill="#fefed2" stroke="none" x="376" y="182" width="13" height="650"/></g><g transform="translate(10,10) scale(1,1)"><path fill="none" stroke="#a00000" d="M 376 182 L 389 182 L 389 832 L 376 832 L 376 182 Z Z" stroke-miterlimit="10"/></g><g transform="translate(10,10) scale(1,1)"><path fill="none" stroke="#a00000" d="M 211 208 L 548 208" stroke-miterlimit="10"/></g><g transform="translate(10,10) scale(1,1)"><path fill="#a00000" stroke="none" d="M 537.8373251423759 212.209517756016 L 548 208 L 537.8373251423758 203.790482243984"/></g><g transform="translate(10,10) scale(1,1)"><path fill="none" stroke="#a00000" d="M 537.8373251423759 212.209517756016 L 548 208 L 537.8373251423758 203.790482243984 L 537.8373251423759 212.209517756016" stroke-miterlimit="10"/></g><g transform="translate(10,10) scale(1,1)"><g><path fill="none" stroke="none"/><text fill="#000000" stroke="none" font-family="Arial" font-size="13px" font-style="normal" font-weight="normal" text-decoration="none" x="303.05908203125" y="203">4 : getPackagedProgram()</text></g></g><g transform="translate(10,10) scale(1,1)"><rect fill="#fefed2" stroke="none" x="548" y="208" width="13" height="28"/></g><g transform="translate(10,10) scale(1,1)"><path fill="none" stroke="#a00000" d="M 548 208 L 561 208 L 561 236 L 548 236 L 548 208 Z Z" stroke-miterlimit="10"/></g><g transform="translate(10,10) scale(1,1)"><path fill="none" stroke="#a00000" d="M 211 256 L 827 256" stroke-miterlimit="10"/></g><g transform="translate(10,10) scale(1,1)"><path fill="#a00000" stroke="none" d="M 816.8373251423759 260.209517756016 L 827 256 L 816.8373251423758 251.790482243984"/></g><g transform="translate(10,10) scale(1,1)"><path fill="none" stroke="#a00000" d="M 816.8373251423759 260.209517756016 L 827 256 L 816.8373251423758 251.790482243984 L 816.8373251423759 260.209517756016" stroke-miterlimit="10"/></g><g transform="translate(10,10) scale(1,1)"><g><path fill="none" stroke="none"/><text fill="#000000" stroke="none" font-family="Arial" font-size="13px" font-style="normal" font-weight="normal" text-decoration="none" x="458.05908203125" y="251">5 : executeProgram()</text></g></g><g transform="translate(10,10) scale(1,1)"><rect fill="#fefed2" stroke="none" x="827" y="256" width="13" height="40"/></g><g transform="translate(10,10) scale(1,1)"><path fill="none" stroke="#a00000" d="M 827 256 L 840 256 L 840 296 L 827 296 L 827 256 Z Z" stroke-miterlimit="10"/></g><g transform="translate(10,10) scale(1,1)"><path fill="none" stroke="#a00000" d="M 827 291 L 561 291" stroke-miterlimit="10"/></g><g transform="translate(10,10) scale(1,1)"><path fill="#a00000" stroke="none" d="M 571.1626748576241 286.790482243984 L 561 291 L 571.1626748576241 295.209517756016"/></g><g transform="translate(10,10) scale(1,1)"><path fill="none" stroke="#a00000" d="M 571.1626748576241 286.790482243984 L 561 291 L 571.1626748576241 295.209517756016 L 571.1626748576241 286.790482243984" stroke-miterlimit="10"/></g><g transform="translate(10,10) scale(1,1)"><g><path fill="none" stroke="none"/><text fill="#000000" stroke="none" font-family="Arial" font-size="13px" font-style="normal" font-weight="normal" text-decoration="none" x="576.72998046875" y="306">6 : invokeInteractiveModeForExecution()</text></g></g><g transform="translate(10,10) scale(1,1)"><rect fill="#fefed2" stroke="none" x="548" y="291" width="13" height="533"/></g><g transform="translate(10,10) scale(1,1)"><path fill="none" stroke="#a00000" d="M 548 291 L 561 291 L 561 824 L 548 824 L 548 291 Z Z" stroke-miterlimit="10"/></g><g transform="translate(10,10) scale(1,1)"><path fill="none" stroke="#a00000" d="M 561 328 L 926 328" stroke-miterlimit="10"/></g><g transform="translate(10,10) scale(1,1)"><path fill="#a00000" stroke="none" d="M 915.8373251423759 332.209517756016 L 926 328 L 915.8373251423758 323.790482243984"/></g><g transform="translate(10,10) scale(1,1)"><path fill="none" stroke="#a00000" d="M 915.8373251423759 332.209517756016 L 926 328 L 915.8373251423758 323.790482243984 L 915.8373251423759 332.209517756016" stroke-miterlimit="10"/></g><g transform="translate(10,10) scale(1,1)"><g><path fill="none" stroke="none"/><text fill="#000000" stroke="none" font-family="Arial" font-size="13px" font-style="normal" font-weight="normal" text-decoration="none" x="684.5" y="323">7 : callMainMethod()</text></g></g><g transform="translate(10,10) scale(1,1)"><rect fill="#fefed2" stroke="none" x="926" y="328" width="13" height="488"/></g><g transform="translate(10,10) scale(1,1)"><path fill="none" stroke="#a00000" d="M 926 328 L 939 328 L 939 816 L 926 816 L 926 328 Z Z" stroke-miterlimit="10"/></g><g transform="translate(10,10) scale(1,1)"><path fill="none" stroke="#a00000" d="M 939 338 L 1080 338" stroke-miterlimit="10"/></g><g transform="translate(10,10) scale(1,1)"><path fill="#a00000" stroke="none" d="M 1069.837325142376 342.209517756016 L 1080 338 L 1069.837325142376 333.790482243984"/></g><g transform="translate(10,10) scale(1,1)"><path fill="none" stroke="#a00000" d="M 1069.837325142376 342.209517756016 L 1080 338 L 1069.837325142376 333.790482243984 L 1069.837325142376 342.209517756016" stroke-miterlimit="10"/></g><g transform="translate(10,10) scale(1,1)"><g><path fill="none" stroke="none"/><text fill="#000000" stroke="none" font-family="Arial" font-size="13px" font-style="normal" font-weight="normal" text-decoration="none" x="981.424072265625" y="333">8 : create</text></g></g><g transform="translate(10,10) scale(1,1)"><rect fill="#fefed2" stroke="none" x="1080" y="338" width="13" height="28"/></g><g transform="translate(10,10) scale(1,1)"><path fill="none" stroke="#a00000" d="M 1080 338 L 1093 338 L 1093 366 L 1080 366 L 1080 338 Z Z" stroke-miterlimit="10"/></g><g transform="translate(10,10) scale(1,1)"><path fill="none" stroke="#a00000" d="M 939 387 L 1080 387" stroke-miterlimit="10"/></g><g transform="translate(10,10) scale(1,1)"><path fill="#a00000" stroke="none" d="M 1069.837325142376 391.209517756016 L 1080 387 L 1069.837325142376 382.790482243984"/></g><g transform="translate(10,10) scale(1,1)"><path fill="none" stroke="#a00000" d="M 1069.837325142376 391.209517756016 L 1080 387 L 1069.837325142376 382.790482243984 L 1069.837325142376 391.209517756016" stroke-miterlimit="10"/></g><g transform="translate(10,10) scale(1,1)"><g><path fill="none" stroke="none"/><text fill="#000000" stroke="none" font-family="Arial" font-size="13px" font-style="normal" font-weight="normal" text-decoration="none" x="990.818603515625" y="382">9 : set</text></g></g><g transform="translate(10,10) scale(1,1)"><rect fill="#fefed2" stroke="none" x="1080" y="387" width="13" height="28"/></g><g transform="translate(10,10) scale(1,1)"><path fill="none" stroke="#a00000" d="M 1080 387 L 1093 387 L 1093 415 L 1080 415 L 1080 387 Z Z" stroke-miterlimit="10"/></g><g transform="translate(10,10) scale(1,1)"><path fill="none" stroke="#a00000" d="M 939 443 L 1080 443" stroke-miterlimit="10"/></g><g transform="translate(10,10) scale(1,1)"><path fill="#a00000" stroke="none" d="M 1069.837325142376 447.209517756016 L 1080 443 L 1069.837325142376 438.790482243984"/></g><g transform="translate(10,10) scale(1,1)"><path fill="none" stroke="#a00000" d="M 1069.837325142376 447.209517756016 L 1080 443 L 1069.837325142376 438.790482243984 L 1069.837325142376 447.209517756016" stroke-miterlimit="10"/></g><g transform="translate(10,10) scale(1,1)"><g><path fill="none" stroke="none"/><text fill="#000000" stroke="none" font-family="Arial" font-size="13px" font-style="normal" font-weight="normal" text-decoration="none" x="973.7236328125" y="438">10 : execute</text></g></g><g transform="translate(10,10) scale(1,1)"><rect fill="#fefed2" stroke="none" x="1080" y="443" width="13" height="365"/></g><g transform="translate(10,10) scale(1,1)"><path fill="none" stroke="#a00000" d="M 1080 443 L 1093 443 L 1093 808 L 1080 808 L 1080 443 Z Z" stroke-miterlimit="10"/></g><g transform="translate(10,10) scale(1,1)"><path fill="none" stroke="#a00000" d="M 1093 456 L 1123 456 L 1123 476 L 1100 476" stroke-miterlimit="10"/></g><g transform="translate(10,10) scale(1,1)"><path fill="#a00000" stroke="none" d="M 1110.162674857624 471.790482243984 L 1100 476 L 1110.162674857624 480.209517756016"/></g><g transform="translate(10,10) scale(1,1)"><path fill="none" stroke="#a00000" d="M 1110.162674857624 471.790482243984 L 1100 476 L 1110.162674857624 480.209517756016 L 1110.162674857624 471.790482243984" stroke-miterlimit="10"/></g><g transform="translate(10,10) scale(1,1)"><g><path fill="none" stroke="none"/><text fill="#000000" stroke="none" font-family="Arial" font-size="13px" font-style="normal" font-weight="normal" text-decoration="none" x="1126.5" y="475">11 : getStreamGraph()</text></g></g><g transform="translate(10,10) scale(1,1)"><rect fill="#fefed2" stroke="none" x="1087" y="476" width="13" height="28"/></g><g transform="translate(10,10) scale(1,1)"><path fill="none" stroke="#a00000" d="M 1087 476 L 1100 476 L 1100 504 L 1087 504 L 1087 476 Z Z" stroke-miterlimit="10"/></g><g transform="translate(10,10) scale(1,1)"><path fill="none" stroke="#a00000" d="M 1093 516 L 1256 516" stroke-miterlimit="10"/></g><g transform="translate(10,10) scale(1,1)"><path fill="#a00000" stroke="none" d="M 1245.837325142376 520.209517756016 L 1256 516 L 1245.837325142376 511.790482243984"/></g><g transform="translate(10,10) scale(1,1)"><path fill="none" stroke="#a00000" d="M 1245.837325142376 520.209517756016 L 1256 516 L 1245.837325142376 511.790482243984 L 1245.837325142376 520.209517756016" stroke-miterlimit="10"/></g><g transform="translate(10,10) scale(1,1)"><g><path fill="none" stroke="none"/><text fill="#000000" stroke="none" font-family="Arial" font-size="13px" font-style="normal" font-weight="normal" text-decoration="none" x="1138.7236328125" y="511">12 : execute</text></g></g><g transform="translate(10,10) scale(1,1)"><rect fill="#fefed2" stroke="none" x="1256" y="516" width="13" height="292"/></g><g transform="translate(10,10) scale(1,1)"><path fill="none" stroke="#a00000" d="M 1256 516 L 1269 516 L 1269 808 L 1256 808 L 1256 516 Z Z" stroke-miterlimit="10"/></g><g transform="translate(10,10) scale(1,1)"><path fill="none" stroke="#a00000" d="M 1269 526 L 1414 526" stroke-miterlimit="10"/></g><g transform="translate(10,10) scale(1,1)"><path fill="#a00000" stroke="none" d="M 1403.837325142376 530.209517756016 L 1414 526 L 1403.837325142376 521.790482243984"/></g><g transform="translate(10,10) scale(1,1)"><path fill="none" stroke="#a00000" d="M 1403.837325142376 530.209517756016 L 1414 526 L 1403.837325142376 521.790482243984 L 1403.837325142376 530.209517756016" stroke-miterlimit="10"/></g><g transform="translate(10,10) scale(1,1)"><g><path fill="none" stroke="none"/><text fill="#000000" stroke="none" font-family="Arial" font-size="13px" font-style="normal" font-weight="normal" text-decoration="none" x="1286.5" y="521">13 : getJobGraph()</text></g></g><g transform="translate(10,10) scale(1,1)"><rect fill="#fefed2" stroke="none" x="1414" y="526" width="13" height="28"/></g><g transform="translate(10,10) scale(1,1)"><path fill="none" stroke="#a00000" d="M 1414 526 L 1427 526 L 1427 554 L 1414 554 L 1414 526 Z Z" stroke-miterlimit="10"/></g><g transform="translate(10,10) scale(1,1)"><path fill="none" stroke="#a00000" d="M 1414 552 L 1269 552" stroke-miterlimit="10" stroke-dasharray="3"/></g><g transform="translate(10,10) scale(1,1)"><path fill="none" stroke="#a00000" d="M 1279.162674857624 547.790482243984 L 1269 552 L 1279.162674857624 556.209517756016" stroke-miterlimit="10"/></g><g transform="translate(10,10) scale(1,1)"><g><path fill="none" stroke="none"/><text fill="#000000" stroke="none" font-family="Arial" font-size="13px" font-style="normal" font-weight="normal" text-decoration="none" x="1287.5" y="567.5">14 : 返回jobGraph</text></g></g><g transform="translate(10,10) scale(1,1)"><path fill="none" stroke="#a00000" d="M 1269 592 L 1570 592" stroke-miterlimit="10"/></g><g transform="translate(10,10) scale(1,1)"><path fill="#a00000" stroke="none" d="M 1559.837325142376 596.209517756016 L 1570 592 L 1559.837325142376 587.790482243984"/></g><g transform="translate(10,10) scale(1,1)"><path fill="none" stroke="#a00000" d="M 1559.837325142376 596.209517756016 L 1570 592 L 1559.837325142376 587.790482243984 L 1559.837325142376 596.209517756016" stroke-miterlimit="10"/></g><g transform="translate(10,10) scale(1,1)"><g><path fill="none" stroke="none"/><text fill="#000000" stroke="none" font-family="Arial" font-size="13px" font-style="normal" font-weight="normal" text-decoration="none" x="1333.5" y="587">15 : createClusterDescriptor()</text></g></g><g transform="translate(10,10) scale(1,1)"><rect fill="#fefed2" stroke="none" x="1570" y="592" width="13" height="48"/></g><g transform="translate(10,10) scale(1,1)"><path fill="none" stroke="#a00000" d="M 1570 592 L 1583 592 L 1583 640 L 1570 640 L 1570 592 Z Z" stroke-miterlimit="10"/></g><g transform="translate(10,10) scale(1,1)"><path fill="none" stroke="#a00000" d="M 1583 603 L 1745 603" stroke-miterlimit="10"/></g><g transform="translate(10,10) scale(1,1)"><path fill="#a00000" stroke="none" d="M 1734.837325142376 607.209517756016 L 1745 603 L 1734.837325142376 598.790482243984"/></g><g transform="translate(10,10) scale(1,1)"><path fill="none" stroke="#a00000" d="M 1734.837325142376 607.209517756016 L 1745 603 L 1734.837325142376 598.790482243984 L 1734.837325142376 607.209517756016" stroke-miterlimit="10"/></g><g transform="translate(10,10) scale(1,1)"><g><path fill="none" stroke="none"/><text fill="#000000" stroke="none" font-family="Arial" font-size="13px" font-style="normal" font-weight="normal" text-decoration="none" x="1633.424072265625" y="598">16 : create</text></g></g><g transform="translate(10,10) scale(1,1)"><rect fill="#fefed2" stroke="none" x="1745" y="603" width="13" height="28"/></g><g transform="translate(10,10) scale(1,1)"><path fill="none" stroke="#a00000" d="M 1745 603 L 1758 603 L 1758 631 L 1745 631 L 1745 603 Z Z" stroke-miterlimit="10"/></g><g transform="translate(10,10) scale(1,1)"><path fill="none" stroke="#a00000" d="M 1745 625 L 1583 625" stroke-miterlimit="10" stroke-dasharray="3"/></g><g transform="translate(10,10) scale(1,1)"><path fill="none" stroke="#a00000" d="M 1593.162674857624 620.790482243984 L 1583 625 L 1593.162674857624 629.209517756016" stroke-miterlimit="10"/></g><g transform="translate(10,10) scale(1,1)"><g><path fill="none" stroke="none"/><text fill="#000000" stroke="none" font-family="Arial" font-size="13px" font-style="normal" font-weight="normal" text-decoration="none" x="1633.28271484375" y="640">17 : return</text></g></g><g transform="translate(10,10) scale(1,1)"><path fill="none" stroke="#a00000" d="M 1570 632 L 1269 632" stroke-miterlimit="10" stroke-dasharray="3"/></g><g transform="translate(10,10) scale(1,1)"><path fill="none" stroke="#a00000" d="M 1279.162674857624 627.790482243984 L 1269 632 L 1279.162674857624 636.209517756016" stroke-miterlimit="10"/></g><g transform="translate(10,10) scale(1,1)"><g><path fill="none" stroke="none"/><text fill="#000000" stroke="none" font-family="Arial" font-size="13px" font-style="normal" font-weight="normal" text-decoration="none" x="1388.28271484375" y="647">18 : return</text></g></g><g transform="translate(10,10) scale(1,1)"><path fill="none" stroke="#a00000" d="M 1269 664 L 1745 664" stroke-miterlimit="10"/></g><g transform="translate(10,10) scale(1,1)"><path fill="#a00000" stroke="none" d="M 1734.837325142376 668.209517756016 L 1745 664 L 1734.837325142376 659.790482243984"/></g><g transform="translate(10,10) scale(1,1)"><path fill="none" stroke="#a00000" d="M 1734.837325142376 668.209517756016 L 1745 664 L 1734.837325142376 659.790482243984 L 1734.837325142376 668.209517756016" stroke-miterlimit="10"/></g><g transform="translate(10,10) scale(1,1)"><g><path fill="none" stroke="none"/><text fill="#000000" stroke="none" font-family="Arial" font-size="13px" font-style="normal" font-weight="normal" text-decoration="none" x="1472.8154296875" y="659">19 : retrieve</text></g></g><g transform="translate(10,10) scale(1,1)"><rect fill="#fefed2" stroke="none" x="1745" y="664" width="13" height="28"/></g><g transform="translate(10,10) scale(1,1)"><path fill="none" stroke="#a00000" d="M 1745 664 L 1758 664 L 1758 692 L 1745 692 L 1745 664 Z Z" stroke-miterlimit="10"/></g><g transform="translate(10,10) scale(1,1)"><path fill="none" stroke="#a00000" d="M 1758 665 L 1941 665" stroke-miterlimit="10"/></g><g transform="translate(10,10) scale(1,1)"><path fill="#a00000" stroke="none" d="M 1930.837325142376 669.209517756016 L 1941 665 L 1930.837325142376 660.790482243984"/></g><g transform="translate(10,10) scale(1,1)"><path fill="none" stroke="#a00000" d="M 1930.837325142376 669.209517756016 L 1941 665 L 1930.837325142376 660.790482243984 L 1930.837325142376 669.209517756016" stroke-miterlimit="10"/></g><g transform="translate(10,10) scale(1,1)"><g><path fill="none" stroke="none"/><text fill="#000000" stroke="none" font-family="Arial" font-size="13px" font-style="normal" font-weight="normal" text-decoration="none" x="1818.424072265625" y="651">20 : create</text></g></g><g transform="translate(10,10) scale(1,1)"><rect fill="#fefed2" stroke="none" x="1941" y="665" width="13" height="28"/></g><g transform="translate(10,10) scale(1,1)"><path fill="none" stroke="#a00000" d="M 1941 665 L 1954 665 L 1954 693 L 1941 693 L 1941 665 Z Z" stroke-miterlimit="10"/></g><g transform="translate(10,10) scale(1,1)"><path fill="none" stroke="#a00000" d="M 1941 682 L 1758 682" stroke-miterlimit="10" stroke-dasharray="3"/></g><g transform="translate(10,10) scale(1,1)"><path fill="none" stroke="#a00000" d="M 1768.162674857624 677.790482243984 L 1758 682 L 1768.162674857624 686.209517756016" stroke-miterlimit="10"/></g><g transform="translate(10,10) scale(1,1)"><g><path fill="none" stroke="none"/><text fill="#000000" stroke="none" font-family="Arial" font-size="13px" font-style="normal" font-weight="normal" text-decoration="none" x="1818.486328125" y="697">21 : return</text></g></g><g transform="translate(10,10) scale(1,1)"><path fill="none" stroke="#a00000" d="M 1745 685 L 1269 685" stroke-miterlimit="10" stroke-dasharray="3"/></g><g transform="translate(10,10) scale(1,1)"><path fill="none" stroke="#a00000" d="M 1279.162674857624 680.790482243984 L 1269 685 L 1279.162674857624 689.209517756016" stroke-miterlimit="10"/></g><g transform="translate(10,10) scale(1,1)"><g><path fill="none" stroke="none"/><text fill="#000000" stroke="none" font-family="Arial" font-size="13px" font-style="normal" font-weight="normal" text-decoration="none" x="1476.486328125" y="700">22 : return</text></g></g><g transform="translate(10,10) scale(1,1)"><path fill="none" stroke="#a00000" d="M 1269 728 L 1941 728" stroke-miterlimit="10"/></g><g transform="translate(10,10) scale(1,1)"><path fill="#a00000" stroke="none" d="M 1930.837325142376 732.209517756016 L 1941 728 L 1930.837325142376 723.790482243984"/></g><g transform="translate(10,10) scale(1,1)"><path fill="none" stroke="#a00000" d="M 1930.837325142376 732.209517756016 L 1941 728 L 1930.837325142376 723.790482243984 L 1930.837325142376 732.209517756016" stroke-miterlimit="10"/></g><g transform="translate(10,10) scale(1,1)"><g><path fill="none" stroke="none"/><text fill="#000000" stroke="none" font-family="Arial" font-size="13px" font-style="normal" font-weight="normal" text-decoration="none" x="1546.5" y="723">23 : getClusterClient</text></g></g><g transform="translate(10,10) scale(1,1)"><rect fill="#fefed2" stroke="none" x="1941" y="728" width="13" height="28"/></g><g transform="translate(10,10) scale(1,1)"><path fill="none" stroke="#a00000" d="M 1941 728 L 1954 728 L 1954 756 L 1941 756 L 1941 728 Z Z" stroke-miterlimit="10"/></g><g transform="translate(10,10) scale(1,1)"><path fill="none" stroke="#a00000" d="M 1954 730 L 2082 730" stroke-miterlimit="10"/></g><g transform="translate(10,10) scale(1,1)"><path fill="#a00000" stroke="none" d="M 2071.837325142376 734.209517756016 L 2082 730 L 2071.837325142376 725.790482243984"/></g><g transform="translate(10,10) scale(1,1)"><path fill="none" stroke="#a00000" d="M 2071.837325142376 734.209517756016 L 2082 730 L 2071.837325142376 725.790482243984 L 2071.837325142376 734.209517756016" stroke-miterlimit="10"/></g><g transform="translate(10,10) scale(1,1)"><g><path fill="none" stroke="none"/><text fill="#000000" stroke="none" font-family="Arial" font-size="13px" font-style="normal" font-weight="normal" text-decoration="none" x="1987.424072265625" y="725">24 : create</text></g></g><g transform="translate(10,10) scale(1,1)"><rect fill="#fefed2" stroke="none" x="2082" y="730" width="13" height="28"/></g><g transform="translate(10,10) scale(1,1)"><path fill="none" stroke="#a00000" d="M 2082 730 L 2095 730 L 2095 758 L 2082 758 L 2082 730 Z Z" stroke-miterlimit="10"/></g><g transform="translate(10,10) scale(1,1)"><path fill="none" stroke="#a00000" d="M 2082 750 L 1954 750" stroke-miterlimit="10" stroke-dasharray="3"/></g><g transform="translate(10,10) scale(1,1)"><path fill="none" stroke="#a00000" d="M 1964.162674857624 745.790482243984 L 1954 750 L 1964.162674857624 754.209517756016" stroke-miterlimit="10"/></g><g transform="translate(10,10) scale(1,1)"><g><path fill="none" stroke="none"/><text fill="#000000" stroke="none" font-family="Arial" font-size="13px" font-style="normal" font-weight="normal" text-decoration="none" x="1987.5" y="765">25 : return</text></g></g><g transform="translate(10,10) scale(1,1)"><path fill="none" stroke="#a00000" d="M 1941 752 L 1269 752" stroke-miterlimit="10" stroke-dasharray="3"/></g><g transform="translate(10,10) scale(1,1)"><path fill="none" stroke="#a00000" d="M 1279.162674857624 747.790482243984 L 1269 752 L 1279.162674857624 756.209517756016" stroke-miterlimit="10"/></g><g transform="translate(10,10) scale(1,1)"><g><path fill="none" stroke="none"/><text fill="#000000" stroke="none" font-family="Arial" font-size="13px" font-style="normal" font-weight="normal" text-decoration="none" x="1574.5" y="767">26 : return</text></g></g><g transform="translate(10,10) scale(1,1)"><path fill="none" stroke="#a00000" d="M 1269 780 L 2082 780" stroke-miterlimit="10"/></g><g transform="translate(10,10) scale(1,1)"><path fill="#a00000" stroke="none" d="M 2071.837325142376 784.209517756016 L 2082 780 L 2071.837325142376 775.790482243984"/></g><g transform="translate(10,10) scale(1,1)"><path fill="none" stroke="#a00000" d="M 2071.837325142376 784.209517756016 L 2082 780 L 2071.837325142376 775.790482243984 L 2071.837325142376 784.209517756016" stroke-miterlimit="10"/></g><g transform="translate(10,10) scale(1,1)"><g><path fill="none" stroke="none"/><text fill="#000000" stroke="none" font-family="Arial" font-size="13px" font-style="normal" font-weight="normal" text-decoration="none" x="1632.864990234375" y="775">27 : submitJob</text></g></g><g transform="translate(10,10) scale(1,1)"><rect fill="#fefed2" stroke="none" x="2082" y="780" width="13" height="28"/></g><g transform="translate(10,10) scale(1,1)"><path fill="none" stroke="#a00000" d="M 2082 780 L 2095 780 L 2095 808 L 2082 808 L 2082 780 Z Z" stroke-miterlimit="10"/></g><g transform="translate(10,10) scale(1,1)"><path fill="none" stroke="#a00000" d="M 2082 797 L 1269 797" stroke-miterlimit="10" stroke-dasharray="3"/></g><g transform="translate(10,10) scale(1,1)"><path fill="none" stroke="#a00000" d="M 1279.162674857624 792.790482243984 L 1269 797 L 1279.162674857624 801.209517756016" stroke-miterlimit="10"/></g><g transform="translate(10,10) scale(1,1)"><g><path fill="none" stroke="none"/><text fill="#000000" stroke="none" font-family="Arial" font-size="13px" font-style="normal" font-weight="normal" text-decoration="none" x="1635.5" y="812.5">28 : 返回结果</text></g></g><g transform="translate(10,10) scale(1,1)"><path fill="none" stroke="#a00000" d="M 1256 800 L 1093 800" stroke-miterlimit="10" stroke-dasharray="3"/></g><g transform="translate(10,10) scale(1,1)"><path fill="none" stroke="#a00000" d="M 1103.162674857624 795.790482243984 L 1093 800 L 1103.162674857624 804.209517756016" stroke-miterlimit="10"/></g><g transform="translate(10,10) scale(1,1)"><g><path fill="none" stroke="none"/><text fill="#000000" stroke="none" font-family="Arial" font-size="13px" font-style="normal" font-weight="normal" text-decoration="none" x="1134.5" y="815.5">29 : 返回结果</text></g></g><g transform="translate(10,10) scale(1,1)"><path fill="none" stroke="#a00000" d="M 1080 806 L 939 806" stroke-miterlimit="10" stroke-dasharray="3"/></g><g transform="translate(10,10) scale(1,1)"><path fill="none" stroke="#a00000" d="M 949.1626748576241 801.790482243984 L 939 806 L 949.1626748576241 810.209517756016" stroke-miterlimit="10"/></g><g transform="translate(10,10) scale(1,1)"><g><path fill="none" stroke="none"/><text fill="#000000" stroke="none" font-family="Arial" font-size="13px" font-style="normal" font-weight="normal" text-decoration="none" x="969.5" y="821.5">30 : 返回结果</text></g></g><g transform="translate(10,10) scale(1,1)"><path fill="none" stroke="#a00000" d="M 926 808 L 561 808" stroke-miterlimit="10" stroke-dasharray="3"/></g><g transform="translate(10,10) scale(1,1)"><path fill="none" stroke="#a00000" d="M 571.1626748576241 803.790482243984 L 561 808 L 571.1626748576241 812.209517756016" stroke-miterlimit="10"/></g><g transform="translate(10,10) scale(1,1)"><g><path fill="none" stroke="none"/><text fill="#000000" stroke="none" font-family="Arial" font-size="13px" font-style="normal" font-weight="normal" text-decoration="none" x="703.5" y="823.5">31 : 返回结果</text></g></g><g transform="translate(10,10) scale(1,1)"><path fill="none" stroke="#a00000" d="M 548 823 L 389 823" stroke-miterlimit="10" stroke-dasharray="3"/></g><g transform="translate(10,10) scale(1,1)"><path fill="none" stroke="#a00000" d="M 399.16267485762415 818.790482243984 L 389 823 L 399.16267485762415 827.209517756016" stroke-miterlimit="10"/></g><g transform="translate(10,10) scale(1,1)"><g><path fill="none" stroke="none"/><text fill="#000000" stroke="none" font-family="Arial" font-size="13px" font-style="normal" font-weight="normal" text-decoration="none" x="428.5" y="838.5">32 : 返回结果</text></g></g><g transform="translate(10,10) scale(1,1)"><path fill="none" stroke="#a00000" d="M 376 826 L 204 826" stroke-miterlimit="10" stroke-dasharray="3"/></g><g transform="translate(10,10) scale(1,1)"><path fill="none" stroke="#a00000" d="M 214.16267485762415 821.790482243984 L 204 826 L 214.16267485762415 830.209517756016" stroke-miterlimit="10"/></g><g transform="translate(10,10) scale(1,1)"><g><path fill="none" stroke="none"/><text fill="#000000" stroke="none" font-family="Arial" font-size="13px" font-style="normal" font-weight="normal" text-decoration="none" x="250.5" y="841.5">33 : 返回结果</text></g></g></g></svg>