<svg version="1.1" xmlns="http://www.w3.org/2000/svg" xmlns:xlink="http://www.w3.org/1999/xlink" width="2084" height="1596"><defs/><g><g transform="translate(10,10) scale(1,1)"><path fill="none" stroke="#a00000" d="M 0 0 L 2064 0 L 2064 1576 L 0 1576 L 0 0" stroke-miterlimit="10"/></g><g transform="translate(10,10) scale(1,1)"><path fill="#fefed2" stroke="none" d="M 0 0 L 0 22 L 135.7041015625 22 L 146.7041015625 11 L 146.7041015625 0 L 0 0"/></g><g transform="translate(10,10) scale(1,1)"><path fill="none" stroke="#a00000" d="M 0 0 L 0 22 L 135.7041015625 22 L 146.7041015625 11 L 146.7041015625 0 L 0 0 L 0 0" stroke-miterlimit="10"/></g><g transform="translate(10,10) scale(1,1)"><g><path fill="none" stroke="none"/><text fill="#000000" stroke="none" font-family="Arial" font-size="13px" font-style="normal" font-weight="normal" text-decoration="none" x="24.72998046875" y="16">SubmitWordCount</text></g></g><g transform="translate(10,10) scale(1,1)"><g><path fill="none" stroke="none"/><text fill="#000000" stroke="none" font-family="Arial" font-size="13px" font-style="normal" font-weight="bold" text-decoration="none" x="4.279541015625" y="16">sd</text></g></g><g transform="translate(10,10) scale(1,1)"><rect fill="#C0C0C0" stroke="none" x="159" y="47" width="91.9345703125" height="39" opacity="0.2"/></g><g transform="translate(10,10) scale(1,1)"><rect fill="#fefed2" stroke="none" x="152" y="40" width="91.9345703125" height="39"/></g><g transform="translate(10,10) scale(1,1)"><path fill="none" stroke="#a00000" d="M 152 40 L 243.9345703125 40 L 243.9345703125 79 L 152 79 L 152 40 Z Z" stroke-miterlimit="10"/></g><g transform="translate(10,10) scale(1,1)"><g><path fill="none" stroke="none"/><text fill="#000000" stroke="none" font-family="Arial" font-size="13px" font-style="normal" font-weight="bold" text-decoration="none" x="161.5" y="58">CliFrontend</text></g></g><g transform="translate(10,10) scale(1,1)"><path fill="none" stroke="#a00000" d="M 198.5 80 L 198.5 696" stroke-miterlimit="10" stroke-dasharray="3"/></g><g transform="translate(10,10) scale(1,1)"><rect fill="#fefed2" stroke="none" x="82" y="92.5" width="14" height="14"/></g><g transform="translate(10,10) scale(1,1)"><path fill="none" stroke="#a00000" d="M 82 92.5 L 96 92.5 L 96 106.5 L 82 106.5 L 82 92.5 Z Z" stroke-miterlimit="10"/></g><g transform="translate(10,10) scale(1,1)"><rect fill="#C0C0C0" stroke="none" x="311" y="47" width="157.6708984375" height="39" opacity="0.2"/></g><g transform="translate(10,10) scale(1,1)"><rect fill="#fefed2" stroke="none" x="304" y="40" width="157.6708984375" height="39"/></g><g transform="translate(10,10) scale(1,1)"><path fill="none" stroke="#a00000" d="M 304 40 L 461.6708984375 40 L 461.6708984375 79 L 304 79 L 304 40 Z Z" stroke-miterlimit="10"/></g><g transform="translate(10,10) scale(1,1)"><g><path fill="none" stroke="none"/><text fill="#000000" stroke="none" font-family="Arial" font-size="13px" font-style="normal" font-weight="bold" text-decoration="none" x="313.5" y="58">CustomCommandLine</text></g></g><g transform="translate(10,10) scale(1,1)"><path fill="none" stroke="#a00000" d="M 383.5 80 L 383.5 696" stroke-miterlimit="10" stroke-dasharray="3"/></g><g transform="translate(10,10) scale(1,1)"><rect fill="#C0C0C0" stroke="none" x="495" y="47" width="133.16259765625" height="39" opacity="0.2"/></g><g transform="translate(10,10) scale(1,1)"><rect fill="#fefed2" stroke="none" x="488" y="40" width="133.16259765625" height="39"/></g><g transform="translate(10,10) scale(1,1)"><path fill="none" stroke="#a00000" d="M 488 40 L 621.16259765625 40 L 621.16259765625 79 L 488 79 L 488 40 Z Z" stroke-miterlimit="10"/></g><g transform="translate(10,10) scale(1,1)"><g><path fill="none" stroke="none"/><text fill="#000000" stroke="none" font-family="Arial" font-size="13px" font-style="normal" font-weight="bold" text-decoration="none" x="497.5" y="58">PackagedProgram</text></g></g><g transform="translate(10,10) scale(1,1)"><path fill="none" stroke="#a00000" d="M 555.5 80 L 555.5 696" stroke-miterlimit="10" stroke-dasharray="3"/></g><g transform="translate(10,10) scale(1,1)"><rect fill="#C0C0C0" stroke="none" x="799" y="47" width="83.28271484375" height="39" opacity="0.2"/></g><g transform="translate(10,10) scale(1,1)"><rect fill="#fefed2" stroke="none" x="792" y="40" width="83.28271484375" height="39"/></g><g transform="translate(10,10) scale(1,1)"><path fill="none" stroke="#a00000" d="M 792 40 L 875.28271484375 40 L 875.28271484375 79 L 792 79 L 792 40 Z Z" stroke-miterlimit="10"/></g><g transform="translate(10,10) scale(1,1)"><g><path fill="none" stroke="none"/><text fill="#000000" stroke="none" font-family="Arial" font-size="13px" font-style="normal" font-weight="bold" text-decoration="none" x="801.5" y="58">ClientUtils</text></g></g><g transform="translate(10,10) scale(1,1)"><path fill="none" stroke="#a00000" d="M 834.5 80 L 834.5 696" stroke-miterlimit="10" stroke-dasharray="3"/></g><g transform="translate(10,10) scale(1,1)"><rect fill="#C0C0C0" stroke="none" x="895" y="47" width="89.51611328125" height="39" opacity="0.2"/></g><g transform="translate(10,10) scale(1,1)"><rect fill="#fefed2" stroke="none" x="888" y="40" width="89.51611328125" height="39"/></g><g transform="translate(10,10) scale(1,1)"><path fill="none" stroke="#a00000" d="M 888 40 L 977.51611328125 40 L 977.51611328125 79 L 888 79 L 888 40 Z Z" stroke-miterlimit="10"/></g><g transform="translate(10,10) scale(1,1)"><g><path fill="none" stroke="none"/><text fill="#000000" stroke="none" font-family="Arial" font-size="13px" font-style="normal" font-weight="bold" text-decoration="none" x="897.5" y="58">WordCount</text></g></g><g transform="translate(10,10) scale(1,1)"><path fill="none" stroke="#a00000" d="M 933.5 80 L 933.5 694" stroke-miterlimit="10" stroke-dasharray="3"/></g><g transform="translate(10,10) scale(1,1)"><rect fill="#C0C0C0" stroke="none" x="991" y="47" width="204.65625" height="39" opacity="0.2"/></g><g transform="translate(10,10) scale(1,1)"><rect fill="#fefed2" stroke="none" x="984" y="40" width="204.65625" height="39"/></g><g transform="translate(10,10) scale(1,1)"><path fill="none" stroke="#a00000" d="M 984 40 L 1188.65625 40 L 1188.65625 79 L 984 79 L 984 40 Z Z" stroke-miterlimit="10"/></g><g transform="translate(10,10) scale(1,1)"><g><path fill="none" stroke="none"/><text fill="#000000" stroke="none" font-family="Arial" font-size="13px" font-style="normal" font-weight="bold" text-decoration="none" x="993.5" y="58">StreamExecutionEnvironment</text></g></g><g transform="translate(10,10) scale(1,1)"><path fill="none" stroke="#a00000" d="M 1087.5 80 L 1087.5 694" stroke-miterlimit="10" stroke-dasharray="3"/></g><g transform="translate(10,10) scale(1,1)"><rect fill="#C0C0C0" stroke="none" x="1343" y="47" width="152.64990234375" height="39" opacity="0.2"/></g><g transform="translate(10,10) scale(1,1)"><rect fill="#fefed2" stroke="none" x="1336" y="40" width="152.64990234375" height="39"/></g><g transform="translate(10,10) scale(1,1)"><path fill="none" stroke="#a00000" d="M 1336 40 L 1488.64990234375 40 L 1488.64990234375 79 L 1336 79 L 1336 40 Z Z" stroke-miterlimit="10"/></g><g transform="translate(10,10) scale(1,1)"><g><path fill="none" stroke="none"/><text fill="#000000" stroke="none" font-family="Arial" font-size="13px" font-style="normal" font-weight="bold" text-decoration="none" x="1345.5" y="58">PipelineExecutorUtils</text></g></g><g transform="translate(10,10) scale(1,1)"><path fill="none" stroke="#a00000" d="M 1413.5 80 L 1413.5 696" stroke-miterlimit="10" stroke-dasharray="3"/></g><g transform="translate(10,10) scale(1,1)"><rect fill="#C0C0C0" stroke="none" x="1207" y="47" width="124.47900390625" height="39" opacity="0.2"/></g><g transform="translate(10,10) scale(1,1)"><rect fill="#fefed2" stroke="none" x="1200" y="40" width="124.47900390625" height="39"/></g><g transform="translate(10,10) scale(1,1)"><path fill="none" stroke="#a00000" d="M 1200 40 L 1324.47900390625 40 L 1324.47900390625 79 L 1200 79 L 1200 40 Z Z" stroke-miterlimit="10"/></g><g transform="translate(10,10) scale(1,1)"><g><path fill="none" stroke="none"/><text fill="#000000" stroke="none" font-family="Arial" font-size="13px" font-style="normal" font-weight="bold" text-decoration="none" x="1209.5" y="58">PipelineExecutor</text></g></g><g transform="translate(10,10) scale(1,1)"><path fill="none" stroke="#a00000" d="M 1263.5 80 L 1263.5 696" stroke-miterlimit="10" stroke-dasharray="3"/></g><g transform="translate(10,10) scale(1,1)"><rect fill="#C0C0C0" stroke="none" x="1511" y="47" width="144.70263671875" height="39" opacity="0.2"/></g><g transform="translate(10,10) scale(1,1)"><rect fill="#fefed2" stroke="none" x="1504" y="40" width="144.70263671875" height="39"/></g><g transform="translate(10,10) scale(1,1)"><path fill="none" stroke="#a00000" d="M 1504 40 L 1648.70263671875 40 L 1648.70263671875 79 L 1504 79 L 1504 40 Z Z" stroke-miterlimit="10"/></g><g transform="translate(10,10) scale(1,1)"><g><path fill="none" stroke="none"/><text fill="#000000" stroke="none" font-family="Arial" font-size="13px" font-style="normal" font-weight="bold" text-decoration="none" x="1513.5" y="58">clusterClientFactory</text></g></g><g transform="translate(10,10) scale(1,1)"><path fill="none" stroke="#a00000" d="M 1577.5 80 L 1577.5 696" stroke-miterlimit="10" stroke-dasharray="3"/></g><g transform="translate(10,10) scale(1,1)"><path fill="none" stroke="#a00000" d="M 96 100 L 191 100" stroke-miterlimit="10"/></g><g transform="translate(10,10) scale(1,1)"><path fill="#a00000" stroke="none" d="M 180.83732514237585 104.20951775601598 L 191 100 L 180.83732514237585 95.79048224398402"/></g><g transform="translate(10,10) scale(1,1)"><path fill="none" stroke="#a00000" d="M 180.83732514237585 104.20951775601598 L 191 100 L 180.83732514237585 95.79048224398402 L 180.83732514237585 104.20951775601598" stroke-miterlimit="10"/></g><g transform="translate(10,10) scale(1,1)"><g><path fill="none" stroke="none"/><text fill="#000000" stroke="none" font-family="Arial" font-size="13px" font-style="normal" font-weight="normal" text-decoration="none" x="97.5" y="95">1 : ./bin/flink run</text></g></g><g transform="translate(10,10) scale(1,1)"><rect fill="#fefed2" stroke="none" x="191" y="100" width="13" height="396"/></g><g transform="translate(10,10) scale(1,1)"><path fill="none" stroke="#a00000" d="M 191 100 L 204 100 L 204 496 L 191 496 L 191 100 Z Z" stroke-miterlimit="10"/></g><g transform="translate(10,10) scale(1,1)"><path fill="none" stroke="#a00000" d="M 204 136 L 234 136 L 234 156 L 211 156" stroke-miterlimit="10"/></g><g transform="translate(10,10) scale(1,1)"><path fill="#a00000" stroke="none" d="M 221.16267485762415 151.790482243984 L 211 156 L 221.16267485762415 160.209517756016"/></g><g transform="translate(10,10) scale(1,1)"><path fill="none" stroke="#a00000" d="M 221.16267485762415 151.790482243984 L 211 156 L 221.16267485762415 160.209517756016 L 221.16267485762415 151.790482243984" stroke-miterlimit="10"/></g><g transform="translate(10,10) scale(1,1)"><g><path fill="none" stroke="none"/><text fill="#000000" stroke="none" font-family="Arial" font-size="13px" font-style="normal" font-weight="normal" text-decoration="none" x="251.72998046875" y="150">2 : run()</text></g></g><g transform="translate(10,10) scale(1,1)"><rect fill="#fefed2" stroke="none" x="198" y="156" width="13" height="116"/></g><g transform="translate(10,10) scale(1,1)"><path fill="none" stroke="#a00000" d="M 198 156 L 211 156 L 211 272 L 198 272 L 198 156 Z Z" stroke-miterlimit="10"/></g><g transform="translate(10,10) scale(1,1)"><path fill="none" stroke="#a00000" d="M 211 182 L 376 182" stroke-miterlimit="10"/></g><g transform="translate(10,10) scale(1,1)"><path fill="#a00000" stroke="none" d="M 365.83732514237585 186.209517756016 L 376 182 L 365.83732514237585 177.790482243984"/></g><g transform="translate(10,10) scale(1,1)"><path fill="none" stroke="#a00000" d="M 365.83732514237585 186.209517756016 L 376 182 L 365.83732514237585 177.790482243984 L 365.83732514237585 186.209517756016" stroke-miterlimit="10"/></g><g transform="translate(10,10) scale(1,1)"><g><path fill="none" stroke="none"/><text fill="#000000" stroke="none" font-family="Arial" font-size="13px" font-style="normal" font-weight="normal" text-decoration="none" x="238.5" y="177.5">3 : 选择命令行接口</text></g></g><g transform="translate(10,10) scale(1,1)"><rect fill="#fefed2" stroke="none" x="376" y="182" width="13" height="266"/></g><g transform="translate(10,10) scale(1,1)"><path fill="none" stroke="#a00000" d="M 376 182 L 389 182 L 389 448 L 376 448 L 376 182 Z Z" stroke-miterlimit="10"/></g><g transform="translate(10,10) scale(1,1)"><path fill="none" stroke="#a00000" d="M 211 208 L 548 208" stroke-miterlimit="10"/></g><g transform="translate(10,10) scale(1,1)"><path fill="#a00000" stroke="none" d="M 537.8373251423759 212.209517756016 L 548 208 L 537.8373251423758 203.790482243984"/></g><g transform="translate(10,10) scale(1,1)"><path fill="none" stroke="#a00000" d="M 537.8373251423759 212.209517756016 L 548 208 L 537.8373251423758 203.790482243984 L 537.8373251423759 212.209517756016" stroke-miterlimit="10"/></g><g transform="translate(10,10) scale(1,1)"><g><path fill="none" stroke="none"/><text fill="#000000" stroke="none" font-family="Arial" font-size="13px" font-style="normal" font-weight="normal" text-decoration="none" x="303.05908203125" y="203">4 : getPackagedProgram()</text></g></g><g transform="translate(10,10) scale(1,1)"><rect fill="#fefed2" stroke="none" x="548" y="208" width="13" height="28"/></g><g transform="translate(10,10) scale(1,1)"><path fill="none" stroke="#a00000" d="M 548 208 L 561 208 L 561 236 L 548 236 L 548 208 Z Z" stroke-miterlimit="10"/></g><g transform="translate(10,10) scale(1,1)"><path fill="none" stroke="#a00000" d="M 211 256 L 827 256" stroke-miterlimit="10"/></g><g transform="translate(10,10) scale(1,1)"><path fill="#a00000" stroke="none" d="M 816.8373251423759 260.209517756016 L 827 256 L 816.8373251423758 251.790482243984"/></g><g transform="translate(10,10) scale(1,1)"><path fill="none" stroke="#a00000" d="M 816.8373251423759 260.209517756016 L 827 256 L 816.8373251423758 251.790482243984 L 816.8373251423759 260.209517756016" stroke-miterlimit="10"/></g><g transform="translate(10,10) scale(1,1)"><g><path fill="none" stroke="none"/><text fill="#000000" stroke="none" font-family="Arial" font-size="13px" font-style="normal" font-weight="normal" text-decoration="none" x="458.05908203125" y="251">5 : executeProgram()</text></g></g><g transform="translate(10,10) scale(1,1)"><rect fill="#fefed2" stroke="none" x="827" y="256" width="13" height="28"/></g><g transform="translate(10,10) scale(1,1)"><path fill="none" stroke="#a00000" d="M 827 256 L 840 256 L 840 284 L 827 284 L 827 256 Z Z" stroke-miterlimit="10"/></g><g transform="translate(10,10) scale(1,1)"><path fill="none" stroke="#a00000" d="M 834 291 L 561 291" stroke-miterlimit="10"/></g><g transform="translate(10,10) scale(1,1)"><path fill="#a00000" stroke="none" d="M 571.1626748576241 286.790482243984 L 561 291 L 571.1626748576241 295.209517756016"/></g><g transform="translate(10,10) scale(1,1)"><path fill="none" stroke="#a00000" d="M 571.1626748576241 286.790482243984 L 561 291 L 571.1626748576241 295.209517756016 L 571.1626748576241 286.790482243984" stroke-miterlimit="10"/></g><g transform="translate(10,10) scale(1,1)"><g><path fill="none" stroke="none"/><text fill="#000000" stroke="none" font-family="Arial" font-size="13px" font-style="normal" font-weight="normal" text-decoration="none" x="579.72998046875" y="306">6 : invokeInteractiveModeForExecution()</text></g></g><g transform="translate(10,10) scale(1,1)"><rect fill="#fefed2" stroke="none" x="548" y="291" width="13" height="53"/></g><g transform="translate(10,10) scale(1,1)"><path fill="none" stroke="#a00000" d="M 548 291 L 561 291 L 561 344 L 548 344 L 548 291 Z Z" stroke-miterlimit="10"/></g><g transform="translate(10,10) scale(1,1)"><path fill="none" stroke="#a00000" d="M 561 328 L 926 328" stroke-miterlimit="10"/></g><g transform="translate(10,10) scale(1,1)"><path fill="#a00000" stroke="none" d="M 915.8373251423759 332.209517756016 L 926 328 L 915.8373251423758 323.790482243984"/></g><g transform="translate(10,10) scale(1,1)"><path fill="none" stroke="#a00000" d="M 915.8373251423759 332.209517756016 L 926 328 L 915.8373251423758 323.790482243984 L 915.8373251423759 332.209517756016" stroke-miterlimit="10"/></g><g transform="translate(10,10) scale(1,1)"><g><path fill="none" stroke="none"/><text fill="#000000" stroke="none" font-family="Arial" font-size="13px" font-style="normal" font-weight="normal" text-decoration="none" x="684.5" y="323">7 : callMainMethod()</text></g></g><g transform="translate(10,10) scale(1,1)"><rect fill="#fefed2" stroke="none" x="926" y="328" width="13" height="155"/></g><g transform="translate(10,10) scale(1,1)"><path fill="none" stroke="#a00000" d="M 926 328 L 939 328 L 939 483 L 926 483 L 926 328 Z Z" stroke-miterlimit="10"/></g><g transform="translate(10,10) scale(1,1)"><path fill="none" stroke="#a00000" d="M 939 338 L 1080 338" stroke-miterlimit="10"/></g><g transform="translate(10,10) scale(1,1)"><path fill="#a00000" stroke="none" d="M 1069.837325142376 342.209517756016 L 1080 338 L 1069.837325142376 333.790482243984"/></g><g transform="translate(10,10) scale(1,1)"><path fill="none" stroke="#a00000" d="M 1069.837325142376 342.209517756016 L 1080 338 L 1069.837325142376 333.790482243984 L 1069.837325142376 342.209517756016" stroke-miterlimit="10"/></g><g transform="translate(10,10) scale(1,1)"><g><path fill="none" stroke="none"/><text fill="#000000" stroke="none" font-family="Arial" font-size="13px" font-style="normal" font-weight="normal" text-decoration="none" x="981.424072265625" y="333">8 : create</text></g></g><g transform="translate(10,10) scale(1,1)"><rect fill="#fefed2" stroke="none" x="1080" y="338" width="13" height="28"/></g><g transform="translate(10,10) scale(1,1)"><path fill="none" stroke="#a00000" d="M 1080 338 L 1093 338 L 1093 366 L 1080 366 L 1080 338 Z Z" stroke-miterlimit="10"/></g><g transform="translate(10,10) scale(1,1)"><path fill="none" stroke="#a00000" d="M 939 387 L 1080 387" stroke-miterlimit="10"/></g><g transform="translate(10,10) scale(1,1)"><path fill="#a00000" stroke="none" d="M 1069.837325142376 391.209517756016 L 1080 387 L 1069.837325142376 382.790482243984"/></g><g transform="translate(10,10) scale(1,1)"><path fill="none" stroke="#a00000" d="M 1069.837325142376 391.209517756016 L 1080 387 L 1069.837325142376 382.790482243984 L 1069.837325142376 391.209517756016" stroke-miterlimit="10"/></g><g transform="translate(10,10) scale(1,1)"><g><path fill="none" stroke="none"/><text fill="#000000" stroke="none" font-family="Arial" font-size="13px" font-style="normal" font-weight="normal" text-decoration="none" x="990.818603515625" y="382">9 : set</text></g></g><g transform="translate(10,10) scale(1,1)"><rect fill="#fefed2" stroke="none" x="1080" y="387" width="13" height="28"/></g><g transform="translate(10,10) scale(1,1)"><path fill="none" stroke="#a00000" d="M 1080 387 L 1093 387 L 1093 415 L 1080 415 L 1080 387 Z Z" stroke-miterlimit="10"/></g><g transform="translate(10,10) scale(1,1)"><path fill="none" stroke="#a00000" d="M 939 443 L 1080 443" stroke-miterlimit="10"/></g><g transform="translate(10,10) scale(1,1)"><path fill="#a00000" stroke="none" d="M 1069.837325142376 447.209517756016 L 1080 443 L 1069.837325142376 438.790482243984"/></g><g transform="translate(10,10) scale(1,1)"><path fill="none" stroke="#a00000" d="M 1069.837325142376 447.209517756016 L 1080 443 L 1069.837325142376 438.790482243984 L 1069.837325142376 447.209517756016" stroke-miterlimit="10"/></g><g transform="translate(10,10) scale(1,1)"><g><path fill="none" stroke="none"/><text fill="#000000" stroke="none" font-family="Arial" font-size="13px" font-style="normal" font-weight="normal" text-decoration="none" x="973.7236328125" y="438">10 : execute</text></g></g><g transform="translate(10,10) scale(1,1)"><rect fill="#fefed2" stroke="none" x="1080" y="443" width="13" height="237"/></g><g transform="translate(10,10) scale(1,1)"><path fill="none" stroke="#a00000" d="M 1080 443 L 1093 443 L 1093 680 L 1080 680 L 1080 443 Z Z" stroke-miterlimit="10"/></g><g transform="translate(10,10) scale(1,1)"><path fill="none" stroke="#a00000" d="M 1093 456 L 1123 456 L 1123 476 L 1100 476" stroke-miterlimit="10"/></g><g transform="translate(10,10) scale(1,1)"><path fill="#a00000" stroke="none" d="M 1110.162674857624 471.790482243984 L 1100 476 L 1110.162674857624 480.209517756016"/></g><g transform="translate(10,10) scale(1,1)"><path fill="none" stroke="#a00000" d="M 1110.162674857624 471.790482243984 L 1100 476 L 1110.162674857624 480.209517756016 L 1110.162674857624 471.790482243984" stroke-miterlimit="10"/></g><g transform="translate(10,10) scale(1,1)"><g><path fill="none" stroke="none"/><text fill="#000000" stroke="none" font-family="Arial" font-size="13px" font-style="normal" font-weight="normal" text-decoration="none" x="1126.5" y="475">11 : getStreamGraph()</text></g></g><g transform="translate(10,10) scale(1,1)"><rect fill="#fefed2" stroke="none" x="1087" y="476" width="13" height="28"/></g><g transform="translate(10,10) scale(1,1)"><path fill="none" stroke="#a00000" d="M 1087 476 L 1100 476 L 1100 504 L 1087 504 L 1087 476 Z Z" stroke-miterlimit="10"/></g><g transform="translate(10,10) scale(1,1)"><path fill="none" stroke="#a00000" d="M 1093 516 L 1256 516" stroke-miterlimit="10"/></g><g transform="translate(10,10) scale(1,1)"><path fill="#a00000" stroke="none" d="M 1245.837325142376 520.209517756016 L 1256 516 L 1245.837325142376 511.790482243984"/></g><g transform="translate(10,10) scale(1,1)"><path fill="none" stroke="#a00000" d="M 1245.837325142376 520.209517756016 L 1256 516 L 1245.837325142376 511.790482243984 L 1245.837325142376 520.209517756016" stroke-miterlimit="10"/></g><g transform="translate(10,10) scale(1,1)"><g><path fill="none" stroke="none"/><text fill="#000000" stroke="none" font-family="Arial" font-size="13px" font-style="normal" font-weight="normal" text-decoration="none" x="1138.7236328125" y="511">12 : execute</text></g></g><g transform="translate(10,10) scale(1,1)"><rect fill="#fefed2" stroke="none" x="1256" y="516" width="13" height="132"/></g><g transform="translate(10,10) scale(1,1)"><path fill="none" stroke="#a00000" d="M 1256 516 L 1269 516 L 1269 648 L 1256 648 L 1256 516 Z Z" stroke-miterlimit="10"/></g><g transform="translate(10,10) scale(1,1)"><path fill="none" stroke="#a00000" d="M 1269 526 L 1406 526" stroke-miterlimit="10"/></g><g transform="translate(10,10) scale(1,1)"><path fill="#a00000" stroke="none" d="M 1395.837325142376 530.209517756016 L 1406 526 L 1395.837325142376 521.790482243984"/></g><g transform="translate(10,10) scale(1,1)"><path fill="none" stroke="#a00000" d="M 1395.837325142376 530.209517756016 L 1406 526 L 1395.837325142376 521.790482243984 L 1395.837325142376 530.209517756016" stroke-miterlimit="10"/></g><g transform="translate(10,10) scale(1,1)"><g><path fill="none" stroke="none"/><text fill="#000000" stroke="none" font-family="Arial" font-size="13px" font-style="normal" font-weight="normal" text-decoration="none" x="1282.5" y="521">13 : getJobGraph()</text></g></g><g transform="translate(10,10) scale(1,1)"><rect fill="#fefed2" stroke="none" x="1406" y="526" width="13" height="28"/></g><g transform="translate(10,10) scale(1,1)"><path fill="none" stroke="#a00000" d="M 1406 526 L 1419 526 L 1419 554 L 1406 554 L 1406 526 Z Z" stroke-miterlimit="10"/></g><g transform="translate(10,10) scale(1,1)"><path fill="none" stroke="#a00000" d="M 1406 552 L 1269 552" stroke-miterlimit="10" stroke-dasharray="3"/></g><g transform="translate(10,10) scale(1,1)"><path fill="none" stroke="#a00000" d="M 1279.162674857624 547.790482243984 L 1269 552 L 1279.162674857624 556.209517756016" stroke-miterlimit="10"/></g><g transform="translate(10,10) scale(1,1)"><g><path fill="none" stroke="none"/><text fill="#000000" stroke="none" font-family="Arial" font-size="13px" font-style="normal" font-weight="normal" text-decoration="none" x="1283.5" y="567.5">14 : 返回jobGraph</text></g></g><g transform="translate(10,10) scale(1,1)"><path fill="none" stroke="#a00000" d="M 1269 592 L 1570 592" stroke-miterlimit="10"/></g><g transform="translate(10,10) scale(1,1)"><path fill="#a00000" stroke="none" d="M 1559.837325142376 596.209517756016 L 1570 592 L 1559.837325142376 587.790482243984"/></g><g transform="translate(10,10) scale(1,1)"><path fill="none" stroke="#a00000" d="M 1559.837325142376 596.209517756016 L 1570 592 L 1559.837325142376 587.790482243984 L 1559.837325142376 596.209517756016" stroke-miterlimit="10"/></g><g transform="translate(10,10) scale(1,1)"><g><path fill="none" stroke="none"/><text fill="#000000" stroke="none" font-family="Arial" font-size="13px" font-style="normal" font-weight="normal" text-decoration="none" x="1333.5" y="587">15 : createClusterDescriptor()</text></g></g><g transform="translate(10,10) scale(1,1)"><rect fill="#fefed2" stroke="none" x="1570" y="592" width="13" height="28"/></g><g transform="translate(10,10) scale(1,1)"><path fill="none" stroke="#a00000" d="M 1570 592 L 1583 592 L 1583 620 L 1570 620 L 1570 592 Z Z" stroke-miterlimit="10"/></g><g transform="translate(10,10) scale(1,1)"><path fill="none" stroke="#a00000" d="M 1570 608 L 1269 608" stroke-miterlimit="10" stroke-dasharray="3"/></g><g transform="translate(10,10) scale(1,1)"><path fill="none" stroke="#a00000" d="M 1279.162674857624 603.790482243984 L 1269 608 L 1279.162674857624 612.209517756016" stroke-miterlimit="10"/></g><g transform="translate(10,10) scale(1,1)"><g><path fill="none" stroke="none"/><text fill="#000000" stroke="none" font-family="Arial" font-size="13px" font-style="normal" font-weight="normal" text-decoration="none" x="1343.5" y="623.5">16 : 返回clusterDescriptor</text></g></g></g></svg>